<?xml version="1.0" encoding="utf-8"?>
<svg viewBox="0 0 512 512" xmlns="http://www.w3.org/2000/svg">
  <g>
    <path fill="#FF8001" opacity="1.000000" stroke="none" d="M 187.603 438.624 C 168.339 452.63 149.216 466.175 128.103 476.636 C 110.054 485.579 91.02 488.018 71.378 484.709 C 47.777 480.733 32.235 464.098 26.915 439.407 C 20.957 411.756 27.03 386.863 42.082 363.428 C 62.591 331.497 88.013 303.977 116.312 278.92 C 144.831 253.67 175.478 231.485 209.393 214.001 C 230.306 203.22 252.039 194.428 275.511 191.488 C 291.955 189.428 308.496 189.587 322.574 200.708 C 329.189 205.934 333.264 213.047 335.909 220.817 C 338.989 229.865 341.365 239.152 344.249 249.03 C 347.478 245.415 350.536 241.645 353.949 238.231 C 366.295 225.882 378.577 213.457 391.271 201.47 C 396.472 196.558 397.529 196.911 401.81 202.65 C 406.869 209.433 411.701 216.408 416.252 223.542 C 422.443 233.248 421.405 242.822 414.571 251.816 C 405.822 263.332 396.156 274.234 388.277 286.309 C 375.327 306.157 367.943 328.357 365.087 351.872 C 364.198 359.193 364.048 366.853 365.171 374.109 C 366.796 384.612 377.406 390.016 386.746 384.944 C 394.242 380.874 401.406 375.643 407.531 369.703 C 423.914 353.817 439.576 337.189 455.692 321.021 C 464.618 312.067 473.878 303.446 483.55 294.133 C 483.747 296.006 483.262 357.809 482.004 359.215 C 457.563 386.526 430.347 410.626 398.884 429.629 C 385.024 437.999 370.54 445.175 354.018 446.354 C 344.274 447.05 335.252 445.43 328.936 436.498 C 321.12 425.445 317.177 413.139 316.022 399.844 C 313.197 367.308 322.28 337.108 334.357 307.516 C 334.858 306.288 243.419 389.205 207.069 423.261 C 201.146 428.811 194.308 433.385 187.603 438.624 M 335.787 255.708 C 321.511 259.117 306.951 258.504 292.555 257.773 C 274.044 256.834 256.025 258.898 238.606 264.703 C 178.006 284.898 131.55 323.303 97.275 376.682 C 89.659 388.543 83.84 401.558 83.989 416.312 C 84.105 427.8 98.205 439.704 109.222 436.218 C 119.556 432.948 129.845 428.626 139.108 423.035 C 180.288 398.178 216.413 366.673 252.373 335.043 C 270.119 319.433 287.525 303.023 304.871 286.968 C 315.858 276.799 336.932 255.683 335.787 255.708 Z"/>
    <path fill="#FF8001" opacity="1.000000" stroke="none" d="M 218.21 78.17 C 229.834 70.119 241.803 68.841 254.272 74.828 C 266.662 80.778 273.12 91.238 273.787 104.528 C 274.603 120.789 264.049 138.279 241.904 140.7 C 226.79 142.352 209.374 132.889 205.138 113.738 C 201.979 99.455 206.567 87.605 218.21 78.17 Z"/>
    <path fill="#FF8001" opacity="1.000000" stroke="none" d="M 401.731 138.662 C 392.247 151.512 377.729 156.615 363.284 152.378 C 348.957 148.176 338.603 135.615 338.148 120.515 C 337.641 103.669 348.348 86.399 370.581 84.289 C 386.031 82.822 402.75 92.727 407.024 111.748 C 409.2 121.432 406.961 130.133 401.731 138.662 Z"/>
    <path fill="#FF8001" opacity="1.000000" stroke="none" d="M 99.039 139.008 C 110.709 130.326 122.961 128.626 135.878 134.628 C 148.51 140.497 155.138 151.073 155.788 164.584 C 156.576 180.937 145.93 198.334 123.846 200.704 C 108.64 202.335 91.376 192.744 87.106 173.684 C 84.031 159.961 88.451 148.536 99.039 139.008 Z"/>
  </g>
  <path fill="#FFCE9C" opacity="1.000000" stroke="none" d=" M336.737000,255.712906 C336.931885,255.682739 337.284363,255.821655 337.428772,256.085022 C337.220734,256.209442 336.894531,255.881989 336.737000,255.712906 z"/>
</svg>